<svg xmlns="http://www.w3.org/2000/svg" viewBox="0 0 42.98 12.09"><defs><style>.cls-1{fill:#231f20;}.cls-2{fill:#edec88;}</style></defs><g id="Layer_2" data-name="Layer 2"><g id="Layer_1-2" data-name="Layer 1"><circle class="cls-1" cx="36.94" cy="6.04" r="6.04"/><path class="cls-1" d="M0,12.09,2.49.31H5.15A4,4,0,0,1,7.81,1,2.6,2.6,0,0,1,8.64,3.1a5.58,5.58,0,0,1-.27,1.8A3.9,3.9,0,0,1,7.6,6.27a3.32,3.32,0,0,1-1.17.87l1.26,5H4.63L3.84,7.71H3.66l-.9,4.38Zm4.16-6.6h.23A1,1,0,0,0,5,5.31a1.49,1.49,0,0,0,.41-.48,2.8,2.8,0,0,0,.24-.65,3.42,3.42,0,0,0,.08-.7,1,1,0,0,0-.19-.65.78.78,0,0,0-.6-.22H4.75Z"/><path class="cls-1" d="M8.31,12.09,10.82.31h2.75l-2.5,11.78Z"/><path class="cls-1" d="M12.82,12.09,15.31.31H18a3.85,3.85,0,0,1,2.88,1,3.76,3.76,0,0,1,1,2.75,11.39,11.39,0,0,1-.22,2.23A10.63,10.63,0,0,1,21,8.47a7.67,7.67,0,0,1-1.18,1.85,5.36,5.36,0,0,1-1.7,1.29,5.09,5.09,0,0,1-2.25.48Zm3.26-2.44h.17a1.55,1.55,0,0,0,1.05-.39,3.22,3.22,0,0,0,.77-1,6.45,6.45,0,0,0,.52-1.33,10.91,10.91,0,0,0,.29-1.4A9.28,9.28,0,0,0,19,4.35a2,2,0,0,0-.3-1.23,1,1,0,0,0-.89-.39h-.23Z"/><path class="cls-1" d="M21.78,12.09,24.26.31h5.35l-.5,2.38H26.53l-.47,2.12h2.41L28,7.19H25.57L25,9.68h2.61l-.51,2.41Z"/><path class="cls-2" d="M32.35,7.5l.7-3.31h.85a1.53,1.53,0,0,1,.7.13.86.86,0,0,1,.39.36,1.06,1.06,0,0,1,.12.5,1.29,1.29,0,0,1-.1.53,1.1,1.1,0,0,1-.3.38,1.33,1.33,0,0,1-.46.23,2.16,2.16,0,0,1-.59.08h-.19l-.23,1.1Zm1.27-1.82h.15A.48.48,0,0,0,34,5.62a.44.44,0,0,0,.16-.17.48.48,0,0,0,.06-.24A.38.38,0,0,0,34.16,5a.3.3,0,0,0-.24-.09h-.13Z"/><path class="cls-2" d="M35.24,7.5l.7-3.31h.88a1.37,1.37,0,0,1,.87.23A.77.77,0,0,1,38,5.1a1.2,1.2,0,0,1-.1.5,1,1,0,0,1-.25.33,1.35,1.35,0,0,1-.29.18L38,7.5H37l-.44-1.21h-.17L36.13,7.5Zm1.29-1.88h.11l.17,0A.51.51,0,0,0,37,5.51a.3.3,0,0,0,.1-.14.48.48,0,0,0,0-.22A.29.29,0,0,0,37,5c0-.06-.12-.08-.23-.08h-.12Z"/><path class="cls-2" d="M39.69,7.54A1.52,1.52,0,0,1,39,7.39a1.14,1.14,0,0,1-.42-.45,1.54,1.54,0,0,1-.14-.67,2.21,2.21,0,0,1,0-.51,2.19,2.19,0,0,1,.14-.5,2.06,2.06,0,0,1,.24-.44,1.71,1.71,0,0,1,.35-.36,1.61,1.61,0,0,1,.45-.24,2,2,0,0,1,.56-.08,1.16,1.16,0,0,1,.93.35,1.32,1.32,0,0,1,.32.92,3.05,3.05,0,0,1-.05.52,2.75,2.75,0,0,1-.14.49,2,2,0,0,1-.24.45,1.88,1.88,0,0,1-.34.35,1.61,1.61,0,0,1-.45.24A1.59,1.59,0,0,1,39.69,7.54Zm.08-.73a.41.41,0,0,0,.21,0,.62.62,0,0,0,.19-.14,1,1,0,0,0,.16-.22,1.82,1.82,0,0,0,.13-.28,1.6,1.6,0,0,0,.07-.33,2.22,2.22,0,0,0,0-.37.61.61,0,0,0-.11-.4.35.35,0,0,0-.31-.15.53.53,0,0,0-.24.06,1.3,1.3,0,0,0-.2.15,1.43,1.43,0,0,0-.16.24,1.26,1.26,0,0,0-.12.29,1.67,1.67,0,0,0-.08.32,1.87,1.87,0,0,0,0,.34.9.9,0,0,0,0,.3.4.4,0,0,0,.16.18A.46.46,0,0,0,39.77,6.81Z"/></g></g></svg>