<svg xmlns="http://www.w3.org/2000/svg" viewBox="0 0 12.09 12.09"><defs><style>.cls-1{fill:#231f20;}.cls-2{fill:#edec88;}</style></defs><g id="Layer_2" data-name="Layer 2"><g id="Layer_1-2" data-name="Layer 1"><circle class="cls-1" cx="6.04" cy="6.04" r="6.04"/><path class="cls-2" d="M1.46,7.5l.7-3.31H3a1.56,1.56,0,0,1,.7.13.86.86,0,0,1,.39.36,1.06,1.06,0,0,1,.12.5,1.29,1.29,0,0,1-.11.53,1.2,1.2,0,0,1-.29.38,1.42,1.42,0,0,1-.46.23,1.87,1.87,0,0,1-.59.08h-.2L2.35,7.5ZM2.73,5.68h.14a.49.49,0,0,0,.25-.06.44.44,0,0,0,.16-.17.47.47,0,0,0,.05-.24A.33.33,0,0,0,3.26,5,.26.26,0,0,0,3,4.91H2.9Z"/><path class="cls-2" d="M4.35,7.5l.7-3.31h.88a1.43,1.43,0,0,1,.87.23.79.79,0,0,1,.3.68,1.06,1.06,0,0,1-.1.5.83.83,0,0,1-.24.33,1.19,1.19,0,0,1-.3.18l.6,1.39h-1L5.66,6.3H5.49L5.24,7.5ZM5.63,5.62h.12l.17,0a.53.53,0,0,0,.15-.08.42.42,0,0,0,.11-.15.67.67,0,0,0,0-.22A.29.29,0,0,0,6.15,5c0-.06-.12-.08-.24-.08H5.79Z"/><path class="cls-2" d="M8.8,7.55a1.49,1.49,0,0,1-.71-.16,1,1,0,0,1-.42-.45,1.41,1.41,0,0,1-.15-.67,2.94,2.94,0,0,1,.05-.51,2.21,2.21,0,0,1,.15-.5A1.88,1.88,0,0,1,8,4.82a1.5,1.5,0,0,1,.35-.36,1.61,1.61,0,0,1,.45-.24,1.94,1.94,0,0,1,.56-.08,1.16,1.16,0,0,1,.93.35,1.31,1.31,0,0,1,.31.92,3,3,0,0,1,0,.52,3.94,3.94,0,0,1-.14.49,3.21,3.21,0,0,1-.24.45,1.88,1.88,0,0,1-.34.35,1.61,1.61,0,0,1-.45.24A1.59,1.59,0,0,1,8.8,7.55Zm.07-.74a.42.42,0,0,0,.22,0,.77.77,0,0,0,.19-.14,1,1,0,0,0,.16-.22,1.18,1.18,0,0,0,.12-.28,1.59,1.59,0,0,0,.08-.33,2.22,2.22,0,0,0,0-.37A.68.68,0,0,0,9.56,5a.37.37,0,0,0-.32-.15A.46.46,0,0,0,9,4.93a1,1,0,0,0-.2.15,1.43,1.43,0,0,0-.16.24,2,2,0,0,0-.13.29,1.65,1.65,0,0,0-.07.32,1.87,1.87,0,0,0,0,.34.9.9,0,0,0,.05.3.45.45,0,0,0,.15.18A.49.49,0,0,0,8.87,6.81Z"/></g></g></svg>